<svg id="Layer_1" data-name="Layer 1" xmlns="http://www.w3.org/2000/svg" viewBox="0 0 467.616 136.898">
  <g>
    <path d="M200.887,67.876H170.366V59.307h30.521Zm0,14.47H170.366v-8.57h30.521Z" fill="#f3b287"/>
    <g>
      <path d="M269.236,88.211q.911-5.3-6.882-7.364a87.2,87.2,0,0,1-10.631-3.294Q240.689,72.842,241.065,63.2q.267-7.82,7.1-12.934a26.018,26.018,0,0,1,16.361-5.008q9.211.11,15.023,5.2a16.568,16.568,0,0,1,5.7,13.335l-12.586-.053a8.127,8.127,0,0,0-2.2-6.293,8.957,8.957,0,0,0-6.32-2.383,12.46,12.46,0,0,0-7.257,2.088,7.787,7.787,0,0,0-3.508,5.463q-.75,4.874,6.856,6.775a75.4,75.4,0,0,1,11.247,3.508q10.6,4.659,10.229,14.567a16.024,16.024,0,0,1-3.615,9.614,21.1,21.1,0,0,1-8.971,6.266,30.7,30.7,0,0,1-11.943,2.009q-9.48-.109-15.719-5.517a17.213,17.213,0,0,1-6.132-13.871l12.264.054q.106,4.659,2.785,7.069a10.761,10.761,0,0,0,7.337,2.463,14.577,14.577,0,0,0,7.847-1.954A7.5,7.5,0,0,0,269.236,88.211Z" fill="#f3b287"/>
      <path d="M269.236,88.211q.911-5.3-6.882-7.364a87.2,87.2,0,0,1-10.631-3.294Q240.689,72.842,241.065,63.2q.267-7.82,7.1-12.934a26.018,26.018,0,0,1,16.361-5.008q9.211.11,15.023,5.2a16.568,16.568,0,0,1,5.7,13.335l-12.586-.053a8.127,8.127,0,0,0-2.2-6.293,8.957,8.957,0,0,0-6.32-2.383,12.46,12.46,0,0,0-7.257,2.088,7.787,7.787,0,0,0-3.508,5.463q-.75,4.874,6.856,6.775a75.4,75.4,0,0,1,11.247,3.508q10.6,4.659,10.229,14.567a16.024,16.024,0,0,1-3.615,9.614,21.1,21.1,0,0,1-8.971,6.266,30.7,30.7,0,0,1-11.943,2.009q-9.48-.109-15.719-5.517a17.213,17.213,0,0,1-6.132-13.871l12.264.054q.106,4.659,2.785,7.069a10.761,10.761,0,0,0,7.337,2.463,14.577,14.577,0,0,0,7.847-1.954A7.5,7.5,0,0,0,269.236,88.211Z" fill="#f3b287"/>
    </g>
    <g>
      <path d="M337.935,36.7q-3.306,7.3-7.92,10.839a15.8,15.8,0,0,1-10.238,3.413A12.7,12.7,0,0,1,309.6,46.167q-3.648-4.614-3.906-12.813a41.245,41.245,0,0,1,1.331-11.333A34.648,34.648,0,0,1,311.449,11.5a19.8,19.8,0,0,1,6.868-6.718A16.6,16.6,0,0,1,327.032,2.7,12.563,12.563,0,0,1,336,6.589q3.692,3.757,4.722,10.453l4.336-13.479h5.151l-8.2,23.609.3,22.837h-4.936Zm-26.872-8.327a38.015,38.015,0,0,0-.215,6.052q.214,5.58,2.79,8.822a9.243,9.243,0,0,0,7.3,3.412q5.495.216,10.045-4.979a28.982,28.982,0,0,0,6.31-12.878l.515-3.434a27.523,27.523,0,0,0-1.03-9.294,14.609,14.609,0,0,0-3.67-6.611,8.262,8.262,0,0,0-5.474-2.382A12.35,12.35,0,0,0,317.073,12q-4.293,5.216-5.753,14.573Z" fill="#f3b287"/>
      <path d="M398.289,31.766h-9.572V50.009H378.286V0H397.86q9.358,0,14.509,3.928t5.152,11.225q0,10.087-9.659,13.994l11.762,20.39v.472H408.463Zm-9.572-8.328h9.143q4.637,0,6.954-2.039a6.822,6.822,0,0,0,2.318-5.387,7.137,7.137,0,0,0-2.253-5.538q-2.255-2.059-7.019-2.06h-9.143Z" fill="#f3b287"/>
      <path d="M466.8,4.464H449.072l-7.9,45.545h-5.108l7.941-45.545H426.278L427.093,0h40.523Z" fill="#f3b287"/>
    </g>
    <circle cx="361.326" cy="28.535" r="2.916" fill="#f3b287"/>
    <g>
      <path d="M73.932,27.6H29.107V57.409H61.139C64.282,46.179,74.6,39.266,89.2,39.266c11.231,0,18.971,2.852,26.734,9.85l.889.8-7.62,7.615-.8-.73c-5.607-5.1-11.276-7.2-19.569-7.2-10.632,0-17.231,5.761-17.231,15.029,0,4.073,1.186,7.158,3.525,9.183s6.593,3.77,11.2,4.512l9.542,1.506c8.14,1.214,12.457,2.886,16.5,6.388,5.065,4.283,7.746,10.557,7.746,18.132a27.477,27.477,0,0,1-.536,5.487A66.192,66.192,0,0,0,27.51,16.987H73.932Z" fill="#f3b287"/>
      <path d="M58.133,118.376l-.8-.8,7.985-7.985.8.8c6.719,6.719,12.942,9.223,22.958,9.223,12.171,0,19.438-5.618,19.438-15.029,0-4.421-1.306-7.894-3.77-10.039-2.567-2.23-4.489-2.926-10.837-3.9l-10.17-1.591C76.642,87.918,71.052,85.6,67.116,82.18a20.917,20.917,0,0,1-6.844-14.156H29.107v35.038h-11.6V25.839a66.2,66.2,0,0,0,78.837,103.8,47.355,47.355,0,0,1-7.54.571C75.438,130.223,66.546,126.789,58.133,118.376Z" fill="#f3b287"/>
    </g>
  </g>
</svg>
