<svg id="Layer_1" data-name="Layer 1" xmlns="http://www.w3.org/2000/svg" viewBox="0 0 132.365 132.373">
  <g>
    <path d="M73.932,23.072H29.107V52.885H61.139C64.282,41.654,74.6,34.741,89.2,34.741c11.231,0,18.971,2.852,26.734,9.851l.889.8L109.2,53.01l-.8-.73c-5.607-5.1-11.276-7.2-19.569-7.2-10.632,0-17.231,5.76-17.231,15.029,0,4.072,1.186,7.158,3.525,9.183s6.593,3.77,11.2,4.512l9.542,1.5c8.14,1.215,12.457,2.886,16.5,6.388,5.065,4.284,7.746,10.558,7.746,18.133a27.46,27.46,0,0,1-.536,5.486A66.191,66.191,0,0,0,27.51,12.463H73.932Z" fill="#f3b287"/>
    <path d="M58.133,113.852l-.8-.8,7.985-7.985.8.8c6.719,6.719,12.942,9.223,22.958,9.223,12.171,0,19.438-5.618,19.438-15.03,0-4.42-1.306-7.894-3.77-10.038-2.567-2.23-4.489-2.926-10.837-3.9l-10.17-1.591c-7.095-1.141-12.685-3.457-16.621-6.879A20.919,20.919,0,0,1,60.272,63.5H29.107V98.537h-11.6V21.315a66.2,66.2,0,0,0,78.837,103.8,47.238,47.238,0,0,1-7.54.57C75.438,125.7,66.546,122.265,58.133,113.852Z" fill="#f3b287"/>
  </g>
</svg>
