<svg id="Layer_1" data-name="Layer 1" xmlns="http://www.w3.org/2000/svg" viewBox="0 0 88.43 88.43">
  <g>
    <path d="M53.469,50.007A16.652,16.652,0,0,0,52,21.452V35.885c0,3.154-3.441,3.42-6.283,5.2a3.327,3.327,0,0,1-2.975,0c-2.8-1.743-6.285-2.042-6.285-5.2V21.452a16.654,16.654,0,0,0-1.465,28.555,3.332,3.332,0,0,1,1.465,2.821v34.91c1.1.2,2.207.36,3.331.471V58.378a4.441,4.441,0,0,1,8.882,0V88.207c1.124-.113,2.233-.279,3.33-.475v-34.9A3.335,3.335,0,0,1,53.469,50.007Z" fill="#454b5b"/>
    <path d="M46.453,88.374v-30a2.221,2.221,0,0,0-4.441,0v30q1.095.054,2.2.055Q45.34,88.43,46.453,88.374Z" fill="#454b5b"/>
    <path d="M88.43,44.215A44.215,44.215,0,1,0,34.24,87.287v-34.4a1.2,1.2,0,0,0-.477-.977,18.873,18.873,0,0,1,3.386-33.229,1.109,1.109,0,0,1,1.532,1.032v16.2c0,1.176,1.166,1.065,5.051,3.219a1.167,1.167,0,0,0,1,0c3.874-2.109,5.051-2.043,5.051-3.219v-16.2a1.112,1.112,0,0,1,1.532-1.032l.056.055A18.875,18.875,0,0,1,54.7,51.906a1.2,1.2,0,0,0-.478.977v34.4A44.223,44.223,0,0,0,88.43,44.215Z" fill="#454b5b"/>
  </g>
</svg>
