<svg id="Layer_1" data-name="Layer 1" xmlns="http://www.w3.org/2000/svg" viewBox="0 0 88.43 88.43">
  <g>
    <path d="M43.37,67.761V56.075a36.25,36.25,0,0,0-7.57.891A31.947,31.947,0,0,0,43.37,67.761Z" fill="#454b5b"/>
    <path d="M34.112,57.418A19.423,19.423,0,0,0,26.649,61.3a24.448,24.448,0,0,0,15.118,7.31A32.891,32.891,0,0,1,34.112,57.418Z" fill="#454b5b"/>
    <path d="M31.551,45.061H19.711a24.4,24.4,0,0,0,5.8,14.978,20.523,20.523,0,0,1,7.988-4.224A34.251,34.251,0,0,1,31.551,45.061ZM26.46,48.442H24.77V46.751h1.69Zm3.382,0H28.151V46.751h1.691Z" fill="#454b5b"/>
    <path d="M35.167,55.362a37.976,37.976,0,0,1,8.2-.99V45.061H33.243A32.2,32.2,0,0,0,35.167,55.362Z" fill="#454b5b"/>
    <path d="M41.767,19.824a24.464,24.464,0,0,0-15.118,7.31,19.417,19.417,0,0,0,7.463,3.877A32.9,32.9,0,0,1,41.767,19.824Z" fill="#454b5b"/>
    <path d="M57.743,39.988a9.3,9.3,0,1,0-9.3-9.3A9.311,9.311,0,0,0,57.743,39.988Zm5.918-10.146h1.691v1.691H63.661Zm-5.918,1.691a3.385,3.385,0,0,1-3.382-3.382V24.769H56.9v-1.69h1.691v1.81a3.38,3.38,0,0,1,2.537,3.262H59.434a1.693,1.693,0,0,0-1.691-1.691H56.052v1.691a1.693,1.693,0,0,0,1.691,1.691,3.386,3.386,0,0,1,3.382,3.382v3.382H58.588V38.3H56.9V36.486a3.378,3.378,0,0,1-2.536-3.262h1.691a1.692,1.692,0,0,0,1.691,1.691h1.691V33.224A1.693,1.693,0,0,0,57.743,31.533Zm-7.61-1.691h1.691v1.691H50.133Z" fill="#454b5b"/>
    <path d="M33.243,43.37H43.37V34.059a37.971,37.971,0,0,1-8.2-.991A32.223,32.223,0,0,0,33.243,43.37Z" fill="#454b5b"/>
    <path d="M33.494,32.615a20.523,20.523,0,0,1-7.988-4.224,24.4,24.4,0,0,0-5.8,14.979h11.84A34.247,34.247,0,0,1,33.494,32.615Z" fill="#454b5b"/>
    <path d="M62.924,60.039a24.409,24.409,0,0,0,5.8-14.978H56.879a34.275,34.275,0,0,1-1.942,10.754A20.516,20.516,0,0,1,62.924,60.039Zm2.428-13.288h1.69v1.691h-1.69Zm-3.382,0h1.691v1.691H61.97Zm-3.382,0h1.691v1.691H58.588Z" fill="#454b5b"/>
    <path d="M35.8,31.464a36.312,36.312,0,0,0,7.57.892V20.669A31.947,31.947,0,0,0,35.8,31.464Z" fill="#454b5b"/>
    <path d="M44.215,0A44.215,44.215,0,1,0,88.43,44.215,44.215,44.215,0,0,0,44.215,0ZM57.743,19.7A10.992,10.992,0,1,1,46.751,30.688,11,11,0,0,1,57.743,19.7ZM70.425,44.215a26.21,26.21,0,1,1-26.21-26.21h.846V43.37H70.425Z" fill="#454b5b"/>
    <path d="M45.061,54.372a37.956,37.956,0,0,1,8.2.99,32.22,32.22,0,0,0,1.926-10.3H45.061Z" fill="#454b5b"/>
    <path d="M46.664,68.606A24.459,24.459,0,0,0,61.781,61.3a19.417,19.417,0,0,0-7.463-3.877A32.906,32.906,0,0,1,46.664,68.606Z" fill="#454b5b"/>
    <path d="M45.061,56.075V67.761A31.937,31.937,0,0,0,52.63,56.966,36.24,36.24,0,0,0,45.061,56.075Z" fill="#454b5b"/>
  </g>
</svg>
