<svg id="Layer_1" data-name="Layer 1" xmlns="http://www.w3.org/2000/svg" viewBox="0 0 88.43 88.43">
  <g>
    <rect x="20.923" y="42.729" width="3.583" height="3.583" fill="#454b5b"/>
    <rect x="19.132" y="48.104" width="3.583" height="3.583" fill="#454b5b"/>
    <rect x="26.298" y="53.479" width="3.583" height="3.583" fill="#454b5b"/>
    <rect x="24.507" y="48.104" width="3.583" height="3.583" fill="#454b5b"/>
    <rect x="31.673" y="53.479" width="3.583" height="3.583" fill="#454b5b"/>
    <rect x="19.132" y="58.854" width="3.583" height="3.583" fill="#454b5b"/>
    <rect x="20.923" y="64.229" width="3.583" height="3.583" fill="#454b5b"/>
    <rect x="20.923" y="53.479" width="3.583" height="3.583" fill="#454b5b"/>
    <rect x="37.048" y="42.729" width="3.583" height="3.583" fill="#454b5b"/>
    <rect x="35.257" y="48.104" width="3.583" height="3.583" fill="#454b5b"/>
    <path d="M61.236,26.6h6.755L60.34,18.927v6.781A.9.9,0,0,0,61.236,26.6Z" fill="#454b5b"/>
    <rect x="37.048" y="53.479" width="3.583" height="3.583" fill="#454b5b"/>
    <rect x="26.298" y="42.729" width="3.583" height="3.583" fill="#454b5b"/>
    <rect x="29.882" y="48.104" width="3.583" height="3.583" fill="#454b5b"/>
    <rect x="31.673" y="42.729" width="3.583" height="3.583" fill="#454b5b"/>
    <path d="M40.632,31.083a9.855,9.855,0,1,0-9.855,9.855A9.854,9.854,0,0,0,40.632,31.083ZM27.194,33.771h1.792a1.792,1.792,0,1,0,1.791-1.792,3.576,3.576,0,0,1-.895-7.039V23.021h1.791V24.94A3.584,3.584,0,0,1,34.361,28.4H32.569a1.792,1.792,0,1,0-1.792,1.792,3.576,3.576,0,0,1,.9,7.039v1.919H29.882V37.227A3.582,3.582,0,0,1,27.194,33.771Z" fill="#454b5b"/>
    <path d="M49.59,44.208V49a5.057,5.057,0,0,0,1.577,3.673l.009.009,5.581,5.778,5.581-5.778A5.068,5.068,0,0,0,63.923,49V44.208l-7.166-3.19Zm12.868,2.149L57.39,51.425a.894.894,0,0,1-1.266,0l-2.535-2.534,1.267-1.267,1.9,1.9,4.434-4.434Z" fill="#454b5b"/>
    <rect x="24.507" y="58.854" width="3.583" height="3.583" fill="#454b5b"/>
    <path d="M58.548,25.708V17.646H32.569a.9.9,0,0,0-.9.9v.94A11.6,11.6,0,0,1,38.84,22.7V21.229h3.583v1.792h-3.26a11.609,11.609,0,0,1-2.2,17.917h4.569a.9.9,0,0,1,.9.895v5.375a.9.9,0,0,1-.9.9h-.9v3.584h.9a.9.9,0,0,1,.9.895v5.375a.9.9,0,0,1-.9.9h-.9v3.584h.9a.9.9,0,0,1,.9.895v.9H68.4a.9.9,0,0,0,.895-.9V28.4H61.236A2.7,2.7,0,0,1,58.548,25.708ZM44.215,21.229H56.757v1.792H44.215Zm0,3.583H56.757V26.6H44.215Zm5.375,7.167V30.188h3.583v1.791Zm3.583,1.792v1.791H49.59V33.771ZM65.715,49a6.792,6.792,0,0,1-2.1,4.936L57.4,60.368c-.012.012-.023.024-.035.035a.887.887,0,0,1-1.255-.035L49.9,53.936A6.807,6.807,0,0,1,47.8,49V43.625a.885.885,0,0,1,.529-.815l8.063-3.583a.872.872,0,0,1,.734,0l8.063,3.583a.884.884,0,0,1,.528.815Zm1.792-13.438H54.965V33.771H67.507Zm0-3.583H54.965V30.188H67.507Z" fill="#454b5b"/>
    <path d="M44.215,0A44.215,44.215,0,1,0,88.43,44.215,44.214,44.214,0,0,0,44.215,0ZM71.09,63.333A2.7,2.7,0,0,1,68.4,66.021H42.423v2.687a.9.9,0,0,1-.9.9h-21.5a.9.9,0,0,1-.895-.9V64.229h-.9a.9.9,0,0,1-.9-.9V57.958a.9.9,0,0,1,.9-.9h.9V53.479h-.9a.9.9,0,0,1-.9-.9V47.208a.9.9,0,0,1,.9-.9h.9V41.833a.9.9,0,0,1,.895-.895H24.6a11.629,11.629,0,0,1,5.286-21.456v-.94a2.7,2.7,0,0,1,2.687-2.688H59.435a.9.9,0,0,1,.627.26L70.83,26.909a.886.886,0,0,1,.26.636Z" fill="#454b5b"/>
    <rect x="37.048" y="64.229" width="3.583" height="3.583" fill="#454b5b"/>
    <rect x="35.257" y="58.854" width="3.583" height="3.583" fill="#454b5b"/>
    <rect x="29.882" y="58.854" width="3.583" height="3.583" fill="#454b5b"/>
    <rect x="26.298" y="64.229" width="3.583" height="3.583" fill="#454b5b"/>
    <rect x="31.673" y="64.229" width="3.583" height="3.583" fill="#454b5b"/>
  </g>
</svg>
