<svg id="Layer_1" data-name="Layer 1" xmlns="http://www.w3.org/2000/svg" viewBox="0 0 88.431 88.43">
  <g>
    <path d="M44.215,0A44.215,44.215,0,1,0,88.431,44.215,44.215,44.215,0,0,0,44.215,0Zm9.558,23.555h7.206a3.953,3.953,0,0,1,3.97,3.97v7.132H63.332v-7.2A2.369,2.369,0,0,0,60.979,25.1H53.773ZM34.657,64.949h-7.2a3.954,3.954,0,0,1-3.971-3.97V53.773H25.1v7.206a2.369,2.369,0,0,0,2.353,2.352h7.2Zm17.572,4.779A17.558,17.558,0,0,1,34.731,53.7,17.532,17.532,0,1,1,53.77,34.738a17.53,17.53,0,0,1-1.541,34.99Z" fill="#454b5b"/>
    <path d="M48.928,34.969A12.755,12.755,0,1,0,34.977,48.932,17.434,17.434,0,0,1,36.6,44.215h-.4A7.951,7.951,0,0,1,28.646,38.7H26.717V37.083H28.3a8.011,8.011,0,0,1-.041-.809,7.723,7.723,0,0,1,.042-.808H26.717V33.848h1.935A8.015,8.015,0,0,1,36.2,28.334a7.917,7.917,0,0,1,7.132,4.412l-1.4.734a6.357,6.357,0,0,0-8.529-2.867,6.232,6.232,0,0,0-3.034,3.235h5.9v1.618H29.935a6.387,6.387,0,0,0,0,1.617h6.339V38.7H30.351c.059.148.118.3.189.441a6.358,6.358,0,0,0,5.734,3.529h1.218A17.534,17.534,0,0,1,48.928,34.969Z" fill="#454b5b"/>
    <path d="M34.743,50.527A14.335,14.335,0,1,1,50.527,34.74c.535-.05,1.074-.082,1.621-.083A15.955,15.955,0,1,0,34.661,52.148Q34.666,51.329,34.743,50.527Z" fill="#454b5b"/>
    <path d="M52.229,39.436a12.757,12.757,0,1,0,12.72,12.793A12.724,12.724,0,0,0,52.229,39.436Zm-8.014,13.6H42.6V51.42h1.617Zm8.308-1.471c.368.147,3.677,1.691,3.677,3.9a3.976,3.976,0,0,1-3.162,3.809v1.706H51.42v-1.7a3.949,3.949,0,0,1-3.161-3.888h1.617a2.427,2.427,0,0,0,4.853,0c0-.809-1.618-1.985-2.72-2.427-.368-.147-3.676-1.691-3.676-3.9a3.933,3.933,0,0,1,3.087-3.711V43.406h1.618v1.917a3.994,3.994,0,0,1,3.235,3.745H54.656a2.427,2.427,0,1,0-4.853,0C49.8,49.95,51.42,51.053,52.523,51.567Zm9.264,1.471H60.17V51.42h1.617Z" fill="#454b5b"/>
    <path d="M52.229,36.274A15.955,15.955,0,1,0,68.184,52.229,15.941,15.941,0,0,0,52.229,36.274Zm0,30.292A14.337,14.337,0,1,1,66.566,52.229,14.5,14.5,0,0,1,52.229,66.566Z" fill="#454b5b"/>
  </g>
</svg>
