<svg id="Layer_1" data-name="Layer 1" xmlns="http://www.w3.org/2000/svg" viewBox="0 0 33 32.315">
  <g>
    <path d="M26.645,6.946a1.491,1.491,0,0,1-1.014-.395,13.514,13.514,0,0,0-18.26,0A1.5,1.5,0,1,1,5.342,4.34a16.515,16.515,0,0,1,22.318,0,1.5,1.5,0,0,1-1.015,2.6Z" fill="#ebfafa" opacity="0.3"/>
    <path d="M21,32.315a1.5,1.5,0,0,1-.449-2.932A13.438,13.438,0,0,0,30,16.5a13.649,13.649,0,0,0-.3-2.871A1.5,1.5,0,1,1,32.627,13,16.526,16.526,0,0,1,21.449,32.246,1.5,1.5,0,0,1,21,32.315Z" fill="#ebfafa"/>
    <path d="M12,32.315a1.494,1.494,0,0,1-.449-.069A16.525,16.525,0,0,1,.39,12.918a1.5,1.5,0,1,1,2.929.647A13.589,13.589,0,0,0,3,16.5a13.438,13.438,0,0,0,9.449,12.883A1.5,1.5,0,0,1,12,32.315Z" fill="#ebfafa" opacity="0.3"/>
  </g>
</svg>
